<?xml version="1.0" encoding="utf-8"?>
<!DOCTYPE svg PUBLIC "-//W3C//DTD SVG 1.1//EN" "http://www.w3.org/Graphics/SVG/1.1/DTD/svg11.dtd">
<svg version="1.1" id="Layer_1" xmlns="http://www.w3.org/2000/svg" xmlns:xlink="http://www.w3.org/1999/xlink" x="0px" y="0px"
	 width="366.9px" height="386px" viewBox="0 0 366.9 386" enable-background="new 0 0 366.9 386" xml:space="preserve">
<g>
	<path fill="#FFFFFF" d="M309.8,79.1h-9.9V57c0-31.4-25.6-57-57-57H123.1c-31.4,0-57,25.6-57,57v22.1h-9c-31.4,0-57,25.6-57,57v92
		c0,31.4,25.6,57,57,57h9v72.3c0,15.7,12.8,28.5,28.5,28.5h176.9c15.7,0,28.5-12.8,28.5-28.5v-72.3h10c31.4,0,57-25.6,57-57v-92
		C366.9,104.7,341.3,79.1,309.8,79.1L309.8,79.1z M87.6,57c0-19.5,15.9-35.4,35.4-35.4h119.7c19.5,0,35.4,15.9,35.4,35.4v22.1H87.6
		V57z M278.2,357.7c0,3.8-3.1,6.9-6.9,6.9H94.5c-3.8,0-6.9-3.1-6.9-6.9V238.4h190.6V357.7z M345.3,228.2c0,19.5-15.9,35.4-35.4,35.4
		h-9.9v-25.3h14.2c6,0,10.8-4.8,10.8-10.8s-4.8-10.8-10.8-10.8h-264c-6,0-10.8,4.8-10.8,10.8s4.8,10.8,10.8,10.8h15.9v25.3h-9
		c-19.5,0-35.4-15.9-35.4-35.4v-92c0-19.5,15.9-35.4,35.4-35.4h252.8c19.5,0,35.4,15.9,35.4,35.4V228.2z M345.3,228.2"/>
	<path fill="#FFFFFF" d="M113.8,291.5h137.5c6,0,10.8-4.8,10.8-10.8s-4.8-10.8-10.8-10.8H113.8c-6,0-10.8,4.8-10.8,10.8
		S107.8,291.5,113.8,291.5L113.8,291.5z M113.8,291.5"/>
	<path fill="#FFFFFF" d="M252.2,314.1H114.6c-6,0-10.8,4.8-10.8,10.8s4.8,10.8,10.8,10.8h137.5c6,0,10.8-4.8,10.8-10.8
		S258.1,314.1,252.2,314.1L252.2,314.1z M252.2,314.1"/>
	<path fill="#FFFFFF" d="M309.6,121.5h-21.9c-6,0-10.8,4.8-10.8,10.8s4.8,10.8,10.8,10.8h21.9c6,0,10.8-4.8,10.8-10.8
		S315.6,121.5,309.6,121.5L309.6,121.5z M309.6,121.5"/>
</g>
</svg>
