<?xml version="1.0" encoding="utf-8"?>
<!-- Generator: Adobe Illustrator 16.0.4, SVG Export Plug-In . SVG Version: 6.00 Build 0)  -->
<!DOCTYPE svg PUBLIC "-//W3C//DTD SVG 1.1//EN" "http://www.w3.org/Graphics/SVG/1.1/DTD/svg11.dtd">
<svg version="1.1" id="Layer_1" xmlns="http://www.w3.org/2000/svg" xmlns:xlink="http://www.w3.org/1999/xlink" x="0px" y="0px"
	 width="158px" height="50.1px" viewBox="0 0 158 50.1" enable-background="new 0 0 158 50.1" xml:space="preserve">
<g>
	<g>
		<path fill="#CCCCCC" d="M158,23.3L132,0.5c-0.7-0.6-1.5-0.7-2.4-0.3c-0.9,0.3-1.3,1-1.3,1.9v14.6H2.2c-0.6,0-1.1,0.2-1.6,0.6
			C0.2,17.7,0,18.2,0,18.8v12.5c0,0.6,0.2,1.1,0.6,1.5c0.4,0.4,0.9,0.6,1.6,0.6h126.2V48c0,0.9,0.4,1.5,1.3,1.9
			c0.9,0.3,1.6,0.2,2.4-0.4L158,26.4c0.5-0.4,0.7-1,0.7-1.6C158.6,24.3,158.4,23.8,158,23.3L158,23.3z M158,23.3"/>
	</g>
</g>
</svg>
